<?xml version="1.0" encoding="utf-8"?>
<svg viewBox="0 0 31 17" aria-hidden="true" xmlns="http://www.w3.org/2000/svg">
  <path d="M4.4 14.3l-.9-.38-1.2-.36-.37-.74a5.03 5.03 0 0 1 .52-2.32 1.69 1.69 0 0 1 .24-.82l-.02-.8a26.68 26.68 0 0 1 2.55-1.6 3.64 3.64 0 0 1-.41-.43 44.57 44.57 0 0 1 8.54-.7 15.2 15.2 0 0 1 4.48.62c.35.14 3.25 1.63 3.65 1.8a5.54 5.54 0 0 0 1.48.5c.62.1 4.1.62 5.53 2.07a1.4 1.4 0 0 1 .25.75.84.84 0 0 1 .2.52 7.46 7.46 0 0 1-.28 1.23 1.42 1.42 0 0 1 .33.06c.06.04-.02.28-.15.34a16.7 16.7 0 0 1-1.64.39h-1.86" fill="#fff"/>
  <g fill="#dedfe0" transform="matrix(1, 0, 0, 1, -0.295284, 0.274194)">
    <ellipse cx="14.91" cy="16.19" rx="11.38" ry=".57"/>
    <circle cx="6.54" cy="13.75" r="2.19"/>
  </g>
  <g fill="#fff">
    <circle cx="23.28" cy="13.75" r="1.25"/>
    <path d="M24.53 13.75a1.25 1.25 0 1 1-.74-1.15"/>
  </g>
  <path d="M25.5 1.12l-1.65 2.3h.63l-.32 1.84 1.68-2.4h-.6l.25-1.74z" fill="#fff"/>
  <defs>
    <path id="B" d="M6.54 16.2a2.44 2.44 0 1 1 2.44-2.45 2.44 2.44 0 0 1-2.44 2.44zm0-4.4a1.94 1.94 0 1 0 1.94 1.95 1.94 1.94 0 0 0-1.94-1.94z"/>
  </defs>
  <g style="" transform="matrix(0.282877, -0.000255, 0.000236, 0.261317, -69.810036, -25.876928)">
    <path d="M 324.059 132.953 C 322.117 132.953 320.265 133.342 318.574 134.042 L 317.779 132.55 C 319.726 131.723 321.852 131.27 324.059 131.27 C 326.807 131.27 329.519 131.978 331.904 133.318 C 332.587 133.702 333.452 133.459 333.836 132.776 C 334.22 132.093 333.977 131.228 333.294 130.844 C 330.486 129.267 327.292 128.433 324.059 128.433 C 321.376 128.433 318.792 129.002 316.44 130.039 L 315.036 127.406 C 315.168 127.415 315.301 127.421 315.435 127.421 L 318.72 127.421 C 319.504 127.421 320.139 126.786 320.139 126.002 L 320.139 116.828 C 320.139 116.045 319.504 115.41 318.72 115.41 L 315.435 115.41 C 313.21 115.41 311.272 116.663 310.289 118.5 L 307.784 113.802 C 307.537 113.34 307.056 113.051 306.532 113.051 L 299.849 113.051 C 299.065 113.051 298.43 113.687 298.43 114.47 C 298.43 115.253 299.065 115.889 299.849 115.889 L 305.68 115.889 L 308.092 120.413 C 307.781 120.185 307.452 119.977 307.102 119.793 C 304.965 118.669 302.381 118.604 300.189 119.617 L 295.771 121.661 C 294.171 122.4 292.919 123.62 292.125 125.083 C 290.854 123.675 289.086 122.716 287.072 122.489 L 265.535 120.053 C 264.436 119.929 263.334 120.281 262.509 121.016 C 261.685 121.753 261.212 122.81 261.212 123.915 L 261.212 130.147 C 260.94 130.265 260.672 130.39 260.411 130.525 C 255.517 133.047 251.967 137.549 250.672 142.875 C 250.487 143.636 250.953 144.403 251.715 144.589 C 251.828 144.616 251.94 144.629 252.052 144.629 C 252.691 144.629 253.271 144.194 253.429 143.545 C 254.53 139.019 257.549 135.193 261.711 133.047 C 263.197 132.281 264.902 131.877 266.643 131.877 L 268.602 131.877 L 291.353 131.877 L 291.353 135.991 L 277.862 135.991 C 275.422 134.092 272.362 132.955 269.051 132.955 C 261.658 132.955 255.513 138.605 254.742 145.813 L 251.492 145.813 C 250.709 145.813 250.073 146.448 250.073 147.231 L 250.073 151.949 C 250.073 152.733 250.709 153.368 251.492 153.368 L 255.978 153.368 C 258.308 158.413 263.44 161.74 269.051 161.74 C 274.662 161.74 279.794 158.413 282.124 153.368 L 291.901 153.368 C 294.996 153.368 297.547 150.996 297.833 147.975 C 300.465 147.028 302.702 145.132 304.061 142.574 L 310.783 129.456 C 311.162 128.446 311.317 127.4 311.271 126.377 L 313.936 131.375 C 310.38 133.63 307.586 137.059 306.156 141.24 C 305.902 141.981 306.298 142.788 307.039 143.042 C 307.192 143.093 307.346 143.118 307.499 143.118 C 308.089 143.118 308.639 142.747 308.842 142.158 C 310.033 138.674 312.337 135.803 315.275 133.886 L 316.071 135.38 C 312.212 137.965 309.666 142.363 309.666 147.346 C 309.666 155.282 316.123 161.739 324.058 161.739 C 331.995 161.739 338.451 155.282 338.451 147.346 C 338.451 139.41 331.995 132.953 324.059 132.953 Z M 312.439 121.243 C 312.439 119.591 313.783 118.247 315.435 118.247 L 317.301 118.247 L 317.301 124.583 L 315.435 124.583 C 313.783 124.583 312.439 123.24 312.439 121.588 L 312.439 121.243 Z M 296.961 124.236 L 301.38 122.193 C 302.776 121.547 304.421 121.59 305.783 122.305 C 307.999 123.469 309.006 126.115 308.126 128.458 L 307.908 129.039 L 294.064 129.039 C 294.045 128.931 294.023 128.825 294 128.719 C 294.059 126.825 295.172 125.064 296.961 124.236 Z M 268.602 129.039 L 266.643 129.039 L 264.05 129.039 L 264.05 123.915 C 264.05 123.507 264.269 123.25 264.4 123.133 C 264.53 123.016 264.811 122.827 265.216 122.873 L 286.752 125.308 C 288.887 125.549 290.595 127.061 291.156 129.039 L 268.602 129.039 Z M 283.359 145.813 C 283.082 143.219 282.108 140.828 280.63 138.829 L 286.407 138.829 L 290.042 145.813 L 283.359 145.813 Z M 269.051 135.792 C 274.883 135.792 279.744 140.172 280.499 145.813 L 257.603 145.813 C 258.358 140.172 263.219 135.792 269.051 135.792 Z M 269.051 158.902 C 265.002 158.902 261.264 156.745 259.191 153.368 L 260.99 153.368 C 262.89 155.915 265.846 157.415 269.051 157.415 C 272.255 157.415 275.212 155.915 277.112 153.368 L 278.911 153.368 C 276.838 156.745 273.099 158.902 269.051 158.902 Z M 265.052 153.368 L 273.05 153.368 C 271.885 154.145 270.503 154.578 269.051 154.578 C 267.599 154.577 266.217 154.145 265.052 153.368 Z M 294.765 148.65 C 294.284 149.756 293.181 150.531 291.901 150.531 L 252.91 150.531 L 252.91 148.65 L 294.765 148.65 Z M 301.555 141.243 C 300.057 144.062 297.143 145.813 293.952 145.813 L 293.24 145.813 L 289.606 138.829 L 292.772 138.829 C 293.556 138.829 294.192 138.194 294.192 137.411 L 294.192 131.877 L 306.531 131.877 L 301.555 141.243 Z M 324.059 158.901 C 317.687 158.901 312.503 153.718 312.503 147.346 C 312.503 143.446 314.448 139.994 317.415 137.9 L 318.12 139.223 C 315.619 141.056 313.99 144.014 313.99 147.346 C 313.99 152.898 318.507 157.414 324.059 157.414 C 329.61 157.414 334.127 152.898 334.127 147.346 C 334.127 141.795 329.61 137.278 324.059 137.278 C 322.852 137.278 321.695 137.492 320.622 137.883 L 319.917 136.562 C 321.204 136.066 322.6 135.792 324.059 135.792 C 330.43 135.792 335.614 140.975 335.614 147.346 C 335.614 153.718 330.43 158.901 324.059 158.901 Z M 321.04 144.7 C 321.296 145.18 321.786 145.452 322.293 145.452 C 322.518 145.452 322.747 145.399 322.959 145.286 C 323.651 144.917 323.912 144.057 323.544 143.366 L 321.976 140.423 C 322.636 140.224 323.334 140.116 324.058 140.116 C 328.045 140.116 331.289 143.359 331.289 147.346 C 331.289 151.333 328.045 154.577 324.058 154.577 C 320.072 154.577 316.829 151.333 316.829 147.346 C 316.829 145.099 317.859 143.088 319.473 141.761 L 321.04 144.7 Z" style="fill: rgb(5, 51, 97);"/>
    <path d="M384.153,289.049c2.018,4.77,8.537,6.235,12.23,2.43c2.896-2.815,2.893-7.783,0-10.6c-2.452-2.526-6.564-2.878-9.47-0.94 C383.954,281.913,382.844,285.772,384.153,289.049C384.343,289.499,383.973,288.599,384.153,289.049z" style="fill: rgb(5, 51, 97);"/>
  </g>
</svg>